<?xml version="1.0" ?><svg id="Icons" style="enable-background:new 0 0 32 32;" version="1.1" viewBox="0 0 32 32" xml:space="preserve" xmlns="http://www.w3.org/2000/svg" xmlns:xlink="http://www.w3.org/1999/xlink"><g><path d="M20.3,23.1c-0.5-0.2-1.1,0.1-1.3,0.6l-2,6c-0.2,0.5,0.1,1.1,0.6,1.3c0.1,0,0.2,0.1,0.3,0.1c0.4,0,0.8-0.3,0.9-0.7l2-6   C21.1,23.8,20.8,23.2,20.3,23.1z" fill="#FFFFFF" fill-rule="nonzero"/><path d="M17.3,21.1c-0.5-0.2-1.1,0.1-1.3,0.6l-2,6c-0.2,0.5,0.1,1.1,0.6,1.3c0.1,0,0.2,0.1,0.3,0.1c0.4,0,0.8-0.3,0.9-0.7l2-6   C18.1,21.8,17.8,21.2,17.3,21.1z" fill="#FFFFFF" fill-rule="nonzero"/><path d="M24.3,21.1c-0.5-0.2-1.1,0.1-1.3,0.6l-2,6c-0.2,0.5,0.1,1.1,0.6,1.3c0.1,0,0.2,0.1,0.3,0.1c0.4,0,0.8-0.3,0.9-0.7l2-6   C25.1,21.8,24.8,21.2,24.3,21.1z" fill="#FFFFFF" fill-rule="nonzero"/><path d="M22.3,11c-3.4,0-6.3,2-7.3,5.1c-2.7,0.1-4.9,2.3-4.9,5c0,1.9,1.1,3.5,2.7,4.4l1.4-4.3c0.5-1.6,2.2-2.4,3.8-1.9   c0.9,0.3,1.6,1,1.9,1.9c0.4,0,0.8,0,1.1,0.1c0.1,0,0.1,0,0.1,0.1l0.1-0.2c0.5-1.6,2.2-2.4,3.8-1.9c1.6,0.5,2.4,2.2,1.9,3.8l-0.7,2   c2.3-1.3,3.8-3.7,3.8-6.4C30,14.4,26.5,11,22.3,11z" fill="#FFFFFF" fill-rule="nonzero"/></g></svg>